# xmcd
#
# Track frame offsets:
#	150
#	10647
#	21900
#	29230
#	46568
#	60811
#	77256
#	91570
#	100630
#	109587
#	120236
#	132483
#	143574
#	155070
#	167559
#	176177
#	185060
#	198021
#	206605
#	218767
#
# Disc length: 2930
#
# Revision: 1
# Processed by: cddbd v1.5.1PL0 Copyright (c) Steve Scherf et al.
# Submitted via: OrangeCD 5.2
# Normalized: r0:DSETVAR1
#
DISCID=f40b7014
DTITLE=Various Artist - Outlaws and Highwaymen
DYEAR=1900
DGENRE=Country
TTITLE0=Willie Nelson - On The Road Again
TTITLE1=Willie Nelson - Funny How Time Slips Away
TTITLE2=Willie Nelson - Crazy
TTITLE3=Willie Nelson - Night Life
TTITLE4=Willie Nelson - Blue Eyes Crying In The Rain
TTITLE5=Willie Nelson - Stardust
TTITLE6=Willie Nelson - Good Hearted Woman
TTITLE7=Waylon Jennings - Love's Gonna Live Here
TTITLE8=Waylon Jennings - Abilene
TTITLE9=Waylon Jennings - White Lightnin'
TTITLE10=Waylon Jennings - Crying
TTITLE11=Waylon Jennings - Burning Memories
TTITLE12=Waylon Jennings - Big Mamou
TTITLE13=Johnny Cash - Folsom Prison Blues
TTITLE14=Johnny Cash - The Wall
TTITLE15=Johnny Cash - I Got Stripes
TTITLE16=Johnny Cash - Long Black Veil
TTITLE17=Johnny Cash - Get Rhythm
TTITLE18=Johnny Cash - The Highwayman
TTITLE19=The Highwaymen - On the Road Again (Reprise)
EXTD=
EXTT0=
EXTT1=
EXTT2=
EXTT3=
EXTT4=
EXTT5=
EXTT6=
EXTT7=
EXTT8=
EXTT9=
EXTT10=
EXTT11=
EXTT12=
EXTT13=
EXTT14=
EXTT15=
EXTT16=
EXTT17=
EXTT18=
EXTT19=
PLAYORDER=
